<?xml version="1.0" encoding="utf-8"?>
<!-- Generator: Adobe Illustrator 26.0.0, SVG Export Plug-In . SVG Version: 6.00 Build 0)  -->
<svg version="1.1" id="Layer_1" xmlns="http://www.w3.org/2000/svg" x="0px" y="0px"
	 viewBox="0 0 236.83 171.02" style="enable-background:new 0 0 236.83 171.02;" xml:space="preserve">
<style type="text/css">
	.st0{fill:#D8965B;}
	.st1{fill:#04B1D9;}
	.st2{fill-rule:evenodd;clip-rule:evenodd;fill:#D8965B;}
</style>
<g>
	<path class="st0" d="M123.96,139.37c-15.71,0.86-32.44-2.3-49.13-8.44c4.74-5.4,7.65-8.03,13.09-13.09
		c11.27,3.33,22.4,4.98,32.79,4.45L123.96,139.37z"/>
	<path class="st1" d="M74.57,104.18c-6.24,2.99-12.31,6.19-18.09,9.61c-4.96-5.33-9.79-11.05-14.3-16.93
		C20.34,68.28,4.45,33.52,0,2.72L19.53,0c3.85,27.57,18.38,58.92,38.28,84.92C63.03,91.77,68.67,98.25,74.57,104.18L74.57,104.18z"
		/>
	<path class="st1" d="M236.83,82.96c-8.59-12.49-19.2-21.14-30.93-26.41c-17.35-7.8-36.99-8.31-57.1-3.46
		c-19.15,4.59-38.87,14.16-57.06,26.69c-31.53,21.77-59.15,52.81-72.9,83.19l17.94,8.06c12.27-27.2,37.35-55.18,66.13-75.05
		c16.3-11.19,33.74-19.71,50.58-23.77c15.98-3.81,31.25-3.53,44.26,2.3c8.66,3.86,16.38,10.23,22.88,19.6L236.83,82.96z"/>
	<path class="st2" d="M71.91,75.17c9.56,1.8,18.8-4.48,20.7-14.03c1.79-9.56-4.49-18.79-14.04-20.69
		c-9.66-1.81-18.9,4.47-20.7,14.03C55.98,64.03,62.35,73.37,71.91,75.17L71.91,75.17z"/>
</g>
<text transform="matrix(1 0 0 1 402.0002 -564.2315)"><tspan x="0" y="0" class="st1" style="font-family:'Chentalle'; font-size:14.4214px;">H</tspan><tspan x="10.59" y="0" style="font-family:'Chentalle'; font-size:14.4214px;">uman </tspan><tspan x="52.18" y="0" class="st1" style="font-family:'Chentalle'; font-size:14.4214px;">R</tspan><tspan x="62.17" y="0" style="font-family:'Chentalle'; font-size:14.4214px;">esources </tspan><tspan x="124.69" y="0" style="fill:#049DD9; font-family:'Chentalle'; font-size:14.4214px;">I</tspan><tspan x="128.28" y="0" style="font-family:'Chentalle'; font-size:14.4214px;">nformation </tspan><tspan x="207.02" y="0" class="st1" style="font-family:'Chentalle'; font-size:14.4214px;">S</tspan><tspan x="214.92" y="0" style="font-family:'Chentalle'; font-size:14.4214px;">ystem</tspan></text>
</svg>
